<?xml version="1.0" encoding="iso-8859-1"?>
<!-- Generator: Adobe Illustrator 19.0.0, SVG Export Plug-In . SVG Version: 6.00 Build 0)  -->
<svg version="1.1" id="Capa_1" xmlns="http://www.w3.org/2000/svg" xmlns:xlink="http://www.w3.org/1999/xlink" x="0px" y="0px"
	 viewBox="0 0 512 512" style="enable-background:new 0 0 512 512;" xml:space="preserve">
<path style="fill:#F2F2F2;" d="M512,256c0,49.633-14.127,95.974-38.578,135.21c-34.492,55.359-89.548,96.58-154.478,112.995
	C298.809,509.294,277.723,512,256,512c-21.765,0-42.904-2.717-63.08-7.837C128.052,487.727,73.049,446.527,38.578,391.21
	C14.127,351.974,0,305.633,0,256C0,114.615,114.615,0,256,0S512,114.615,512,256z"/>
<path style="fill:#0072F6;" d="M255.99,52.809c-131.992,0-238.999,107.008-238.999,239.01c0,35.464,7.722,69.13,21.588,99.391
	c34.471,55.317,89.475,96.517,154.342,112.953c-45.014-13.343-84.052-40.636-112.107-76.852h121.26l50.03-34.743V203.577
	l-48.64-36.133H72.735c39.852-58.598,107.06-97.092,183.254-97.092c76.215,0,143.423,38.494,183.265,97.092h-34.597l-8.035,17.711
	l-23.343-17.711h-53.081l-48.64,36.133v188.991l50.03,34.743h109.589c-28.076,36.248-67.156,63.551-112.232,76.894
	c64.93-16.415,119.986-57.637,154.478-112.995c13.866-30.26,21.588-63.927,21.588-99.391
	C495.01,159.817,387.992,52.809,255.99,52.809z M163.976,227.203c11.452,0,20.731,9.268,20.731,20.72v101.679
	c0,11.452-9.279,20.731-20.731,20.731h-27.22V239.7l-17.366-12.497L163.976,227.203L163.976,227.203z M70.06,412.16
	c-22.476-34.649-35.527-75.975-35.527-120.341c0-26.311,4.598-51.545,13.019-74.951l22.507,16.583V412.16z M448.042,402.181V335.59
	h-61.837v34.043h-26.008c-12.309,0-22.288-9.979-22.288-22.277V239.7l-17.021-12.497h65.317v36.822h56.278l11.368-71.795
	c15.099,29.936,23.615,63.77,23.615,99.589C477.466,332.006,466.756,369.695,448.042,402.181z"/>
<g>
</g>
<g>
</g>
<g>
</g>
<g>
</g>
<g>
</g>
<g>
</g>
<g>
</g>
<g>
</g>
<g>
</g>
<g>
</g>
<g>
</g>
<g>
</g>
<g>
</g>
<g>
</g>
<g>
</g>
</svg>
